<?xml version="1.0" encoding="utf-8"?>
<!-- Generator: Adobe Illustrator 18.1.0, SVG Export Plug-In . SVG Version: 6.00 Build 0)  -->
<!DOCTYPE svg PUBLIC "-//W3C//DTD SVG 1.1//EN" "http://www.w3.org/Graphics/SVG/1.1/DTD/svg11.dtd">
<svg version="1.1" id="Layer_1" xmlns="http://www.w3.org/2000/svg" xmlns:xlink="http://www.w3.org/1999/xlink" x="0px" y="0px"
	 viewBox="0 0 414.9 42.4" enable-background="new 0 0 414.9 42.4" xml:space="preserve">
<path fill="#009BFF" d="M0,2h23.3v8.7H11v5.7h12.1v8.7H11v6.6h12.8v8.7H0V2z"/>
<path fill="#009BFF" d="M28,2h11v29.5h12.3v8.9H28V2z"/>
<path fill="#009BFF" d="M54.9,2h23.3v8.7H65.9v5.7H78v8.7H65.9v6.6h12.8v8.7H54.9V2z"/>
<path fill="#009BFF" d="M81.8,21.2c0-11.8,8.2-20,20.5-20c4.5,0,7.6,1.1,9.2,2v10.2c-1.8-1.4-4.8-2.6-8.4-2.6
	c-6.1,0-10.1,3.8-10.1,10.4c0,6.6,3.9,10.4,10,10.4c3.6,0,6.9-0.9,8.9-2.6v10.2c-1.6,0.9-5.1,2-9.7,2C89.9,41.2,81.8,33.1,81.8,21.2
	z"/>
<path fill="#009BFF" d="M124.2,10.9h-9.5V2h29.9v8.9h-9.5v29.5h-11V10.9z"/>
<path fill="#009BFF" d="M147,2h11v38.4h-11V2z"/>
<path fill="#009BFF" d="M207.7,2h10l12.9,16.2c2,2.5,3.7,5.3,4.6,7l0.2-0.1c-0.2-1.8-0.3-5-0.3-8.1V2h10.3v38.4h-10l-12.9-16.2
	c-2-2.5-3.7-5.3-4.6-7l-0.2,0.1c0.2,1.8,0.3,5,0.3,8.1v15h-10.3V2z"/>
<path fill="#009BFF" d="M247.9,35.6l5.3-7.3c2,2.4,5.2,4.5,9,4.5c2.8,0,4.5-1.2,4.5-3.4c0-2.7-2.5-3.4-6.6-4.7
	c-5.6-1.7-10.5-4.6-10.5-11.2c0-7.3,6-12.1,14.4-12.1c5.8,0,10.3,1.8,13.1,4.4l-5,7.3c-1.6-1.8-4.3-3.3-7.5-3.3c-2.8,0-4,1.1-4,2.7
	c0,2.4,2.9,3.1,6.1,4c6.2,2,11,4.8,11,11.9c0,7.4-5.3,12.9-14.9,12.9C255.7,41.2,250.2,38.2,247.9,35.6z"/>
<path fill="#EB1E00" d="M290.6,40l12-14c4.2-4.9,7.2-8.2,7.2-11.5c0-2.2-1.4-4-4.2-4c-2.5,0-4.3,1.4-4.3,4.8v0.5h-10.5
	c0-8.6,5-14.5,15.3-14.5c8.9,0,14.7,4.5,14.7,11.8c0,6.5-4.6,10.7-9.2,16l-2.1,2.4h13v9h-31.9V40z"/>
<path fill="#EB1E00" d="M325.8,21.2c0-12.1,5.5-20,16.4-20c11.2,0,16.4,7.4,16.4,20c0,12.1-5.5,20-16.4,20
	C331,41.2,325.8,33.7,325.8,21.2z M348,21.2c0-7.1-1.7-10.5-5.7-10.5c-4,0-5.7,3.4-5.7,10.5c0,7.1,1.7,10.5,5.7,10.5
	C346.2,31.8,348,28.3,348,21.2z"/>
<path fill="#EB1E00" d="M367.8,10.9h-6.2l1.6-8.9h15.6v38.4h-11V10.9z"/>
<path fill="#EB1E00" d="M382.9,27.3c0-4.8,2.2-9,4.6-12.6L396.1,2h13.3l-9.6,12.5c0.4-0.1,1-0.2,2.1-0.2c7.3,0,13,4.5,13,12.6
	c0,9.1-7.1,14.3-16,14.3C389.9,41.2,382.9,36.1,382.9,27.3z M404.5,27.1c0-3.1-2.2-5.5-5.6-5.5s-5.6,2.4-5.6,5.5
	c0,3.1,2.2,5.5,5.6,5.5S404.5,30.2,404.5,27.1z"/>
<g>
	<circle fill="#009BFF" cx="183" cy="21.2" r="21.2"/>
	<polygon fill="#FFFFFF" points="185.8,17.5 183,8.8 180.1,17.5 170.9,17.5 178.4,22.9 175.5,31.7 183,26.3 190.4,31.7 187.5,22.9 
		195,17.5 	"/>
</g>
</svg>
